# xmcd
#
# Track frame offsets: 
#        150
#        26426
#        54818
#        86426
#        112127
#        132290
#        150075
#        169050
#        189101
#        211650
#        243312
#        259901
#        291362
#        309716
#
# Disc length: 4571 seconds
#
# Revision: 2
# Processed by: cddbd v1.5.2PL0 Copyright (c) Steve Scherf et al.
# Submitted via: ExactAudioCopyFreeDBPlugin 1.0
#
DISCID=b111d90e
DTITLE=Various Artist - Jazzclub World - From Jamaica With Jazz
DYEAR=2010
DGENRE=Jazz
TTITLE0=Ernest Ranglin - 54 46 (Was My Number)
TTITLE1=Monty Alexander - Jammin'
TTITLE2=Junior Mance - I Can See Clearly Now
TTITLE3=Bernard Purdie - Montego Bay
TTITLE4=Deodato - I Shot The Sheriff
TTITLE5=Billy Martin - Legalize It
TTITLE6=Ernest Ranglin - Fade Away
TTITLE7=Monty Alexander - Many Rivers To Cross
TTITLE8=Dean Fraser - Natty Never Get Weary
TTITLE9=The Skatalites - Rock Fort Rock
TTITLE10=Val Bennett - The Russians Are Coming (Aka Take 5)
TTITLE11=Dean Fraser - Have Mercy
TTITLE12=Brass Fever - Pressure Drop
TTITLE13=Bill Summers And Summers Heat - Walking On Sunshine
EXTD=YEAR: 2010
EXTT0=
EXTT1=
EXTT2=
EXTT3=
EXTT4=
EXTT5=
EXTT6=
EXTT7=
EXTT8=
EXTT9=
EXTT10=
EXTT11=
EXTT12=
EXTT13=
PLAYORDER=
